<?xml version="1.0" encoding="UTF-8"?>
<svg version="1.1" viewBox="0 0 2048 1576" width="1280" height="1280" xmlns="http://www.w3.org/2000/svg">
<path transform="translate(0)" d="m0 0h2048v1576h-2048z" fill="#FBFAFA"/>
<path transform="translate(956,95)" d="m0 0h27l15 4 16 9 16 12 13 11 7 3 17 3 23 5 15 6 15 9 14 11 11 11 12 16 12 20 11 20 15 35 16-4 32-9 12-2 6 3 26 24 55 55 7 5 10 2 59 4 39 4 9 2 4 4 6 38 13 90 14 96 23 153 9 62 15 100 15 104 11 71 7 48 13 89 10 67 9 60 4 33v6l-3 3-30 8-64 14-213 46-72 16-31 6h-22l-30-5-87-17-51-9-45-9-40-7-66-13-61-11-52-10-49-9-62-12-50-9-41-8-51-9-76-14-10-3-1-1v-19l7-53 9-67 13-101 27-208 13-99 14-110 17-127 7-51 4-5 8-4 24-9 74-23 31-10 21-7 4-4 3-13 9-32 14-41 13-32 12-26 8-16 11-20 15-24 10-14 8-10 24-28 11-11 8-7 11-10 19-14 15-9 17-8 27-9 20-4z" fill="#141B0D"/>
<path transform="translate(911,565)" d="m0 0h61l23 3 23 5 27 9 6 4-2 8-12 36-12 38-12 36-12 33-3 5-5-2-16-6-23-6-21-4-15-2-14-1h-29l-15 3-19 7-11 6-7 7-8 16-3 12-1 12 4 15 5 10 7 9 8 8 12 9 10 9 13 10 10 7 17 12 13 12 10 9 9 7 10 9 9 10 12 16 11 15 9 17 10 28 5 32 1 13v30l-3 19-6 28-7 24-7 15-5 8-2 2-4 10-7 12-11 14-15 15-14 11-15 10-11 5-21 8-25 8-25 4-24 2h-11l-33-4-23-6-26-8-28-10-19-9-27-18-14-11-17-17-1-7 17-58 12-36 4-13 2-5 2-2 4 1 16 12 18 11 13 8 15 9 20 8 16 5 15 3 15 1 14-2 12-6 16-12 3-5 5-12 2-8v-15l-3-16-4-9-3-6-10-11-9-11-9-9-14-11-13-10-12-11-16-15-8-7-9-8-10-14-7-12-9-16-8-20-6-23-3-23v-22l3-24 4-21 6-21 13-34 8-16 11-18 11-14 36-36 10-7 13-8 16-9 24-11 17-8 25-6 25-5z" fill="#FCFBFB"/>
<path transform="translate(949,143)" d="m0 0h29l12 3v4l-23 15-17 13-15 14-9 9-9 11-9 12-9 14-9 16-10 19-10 24-8 25-10 40-5 16-3 3-31 10-57 16-13 4h-5l2-10 8-23 12-32 12-29 7-15 10-22 9-15 10-15 11-18 9-12 8-10 9-10 17-17 14-11 10-7 17-10 21-8 15-3z" fill="#FCFBFB"/>
<path transform="translate(1017,192)" d="m0 0 4 1 3 6 6 25 6 36 2 23 1 35-4 3-36 12-52 16-37 10-9 1 1-6 8-25 5-15 8-19 11-21 14-21 11-14 9-10 5-6 8-7 11-9 11-7z" fill="#FBFAFA"/>
<path transform="translate(1071,183)" d="m0 0 13 4 12 6 14 11 11 14 10 17 11 23 9 24-1 3-34 11-23 7-7 1-1-11-1-25-3-28-7-41-3-13z" fill="#FCFBFB"/>
</svg>
